<mxfile host="app.diagrams.net" modified="2024-03-20T12:13:21.508Z" agent="Mozilla/5.0 (Windows NT 10.0; Win64; x64) AppleWebKit/537.36 (KHTML, like Gecko) Chrome/120.0.0.0 Safari/537.36" version="24.0.7" etag="TLzFa778sizvCOOTd_iz" type="github">
  <diagram name="Page-1" id="Sdn18f_PWOAYdjXlUg6h">
    <mxGraphModel>
      <root>
        <mxCell id="0" />
        <mxCell id="1" parent="0" />
      </root>
    </mxGraphModel>
  </diagram>
</mxfile>
